{
  "accessors": [
    {
      "bufferView": 2,
      "componentType": 5126,
      "count": 65532,
      "max": [
        2149.084716796875,
        3762.0,
        5294.2265625
      ],
      "min": [
        -4591.92919921875,
        2516.0,
        -5294.2265625
      ],
      "type": "VEC3"
    },
    {
      "bufferView": 2,
      "byteOffset": 786384,
      "componentType": 5126,
      "count": 65532,
      "max": [
        0.8877280950546265,
        1.0,
        0.793708860874176
      ],
      "min": [
        -0.9120586514472961,
        0.36641228199005127,
        -0.7585490942001343
      ],
      "type": "VEC3"
    },
    {
      "bufferView": 1,
      "componentType": 5126,
      "count": 65532,
      "max": [
        0.7340067028999329,
        1.0
      ],
      "min": [
        0.0,
        0.0
      ],
      "type": "VEC2"
    },
    {
      "bufferView": 0,
      "componentType": 5125,
      "count": 389754,
      "type": "SCALAR"
    },
    {
      "bufferView": 2,
      "byteOffset": 1572768,
      "componentType": 5126,
      "count": 31780,
      "max": [
        4591.92919921875,
        4002.0,
        5294.2265625
      ],
      "min": [
        -2891.214599609375,
        2580.0,
        -5294.2265625
      ],
      "type": "VEC3"
    },
    {
      "bufferView": 2,
      "byteOffset": 1954128,
      "componentType": 5126,
      "count": 31780,
      "max": [
        0.7836410403251648,
        1.0,
        0.7409247756004333
      ],
      "min": [
        -0.64252769947052,
        0.5465306639671326,
        -0.7294507026672363
      ],
      "type": "VEC3"
    },
    {
      "bufferView": 1,
      "byteOffset": 524256,
      "componentType": 5126,
      "count": 31780,
      "max": [
        1.0,
        1.0
      ],
      "min": [
        0.18518519401550293,
        0.0
      ],
      "type": "VEC2"
    },
    {
      "bufferView": 0,
      "byteOffset": 1559016,
      "componentType": 5125,
      "count": 187119,
      "type": "SCALAR"
    },
    {
      "bufferView": 2,
      "byteOffset": 2335488,
      "componentType": 5126,
      "count": 2705,
      "max": [
        695.16796875,
        3537.04736328125,
        4033.072021484375
      ],
      "min": [
        -4037.658203125,
        2572.933349609375,
        -1660.3287353515625
      ],
      "type": "VEC3"
    },
    {
      "bufferView": 2,
      "byteOffset": 2367948,
      "componentType": 5126,
      "count": 2705,
      "max": [
        1.0,
        1.0,
        1.0
      ],
      "min": [
        -1.0,
        0.0,
        -1.0
      ],
      "type": "VEC3"
    },
    {
      "bufferView": 0,
      "byteOffset": 2307492,
      "componentType": 5125,
      "count": 4617,
      "type": "SCALAR"
    },
    {
      "bufferView": 2,
      "byteOffset": 2400408,
      "componentType": 5126,
      "count": 31202,
      "max": [
        9629.015625,
        4130.18212890625,
        10585.501953125
      ],
      "min": [
        -7531.01904296875,
        2401.567138671875,
        -10202.541015625
      ],
      "type": "VEC3"
    },
    {
      "bufferView": 2,
      "byteOffset": 2774832,
      "componentType": 5126,
      "count": 31202,
      "max": [
        0.7651956081390381,
        1.0,
        0.8519165515899658
      ],
      "min": [
        -0.7696608304977417,
        0.3760639727115631,
        -0.9260271787643433
      ],
      "type": "VEC3"
    },
    {
      "bufferView": 0,
      "byteOffset": 2325960,
      "componentType": 5125,
      "count": 92328,
      "type": "SCALAR"
    }
  ],
  "asset": {
    "extras": {
      "author": "Dr Carlos Bartesaghi Koc (https://sketchfab.com/Carlosbartesaghikoc)",
      "license": "CC-BY-NC-SA-4.0 (http://creativecommons.org/licenses/by-nc-sa/4.0/)",
      "source": "https://sketchfab.com/3d-models/toquepala-mine-peru-962cde22a76f42bd856616473510e9df",
      "title": "Toquepala Mine - Peru"
    },
    "generator": "Sketchfab-12.65.0",
    "version": "2.0"
  },
  "bufferViews": [
    {
      "buffer": 0,
      "byteLength": 2695272,
      "name": "floatBufferViews",
      "target": 34963
    },
    {
      "buffer": 0,
      "byteLength": 778496,
      "byteOffset": 2695272,
      "byteStride": 8,
      "name": "floatBufferViews",
      "target": 34962
    },
    {
      "buffer": 0,
      "byteLength": 3149256,
      "byteOffset": 3473768,
      "byteStride": 12,
      "name": "floatBufferViews",
      "target": 34962
    }
  ],
  "buffers": [
    {
      "byteLength": 6623024,
      "uri": "scene.bin"
    }
  ],
  "extensionsUsed": [
    "KHR_materials_unlit"
  ],
  "images": [
    {
      "uri": "textures/TerrainNodeMaterial_baseColor.jpeg"
    }
  ],
  "materials": [
    {
      "doubleSided": true,
      "extensions": {
        "KHR_materials_unlit": {}
      },
      "name": "TerrainNodeMaterial",
      "pbrMetallicRoughness": {
        "baseColorTexture": {
          "index": 0
        },
        "metallicFactor": 0.0
      }
    },
    {
      "doubleSided": true,
      "extensions": {
        "KHR_materials_unlit": {}
      },
      "name": "BuildingsMaterial",
      "pbrMetallicRoughness": {
        "baseColorFactor": [
          0.7665614189803083,
          0.7538685744644618,
          0.736252901181303,
          1.0
        ],
        "metallicFactor": 0.0
      }
    },
    {
      "doubleSided": true,
      "extensions": {
        "KHR_materials_unlit": {}
      },
      "name": "StreetsMaterial",
      "pbrMetallicRoughness": {
        "baseColorFactor": [
          0.0314744365057738,
          0.027705808629130177,
          0.027705808629130177,
          1.0
        ],
        "metallicFactor": 0.0
      }
    }
  ],
  "meshes": [
    {
      "name": "Object_0",
      "primitives": [
        {
          "attributes": {
            "NORMAL": 1,
            "POSITION": 0,
            "TEXCOORD_0": 2
          },
          "indices": 3,
          "material": 0,
          "mode": 4
        }
      ]
    },
    {
      "name": "Object_1",
      "primitives": [
        {
          "attributes": {
            "NORMAL": 5,
            "POSITION": 4,
            "TEXCOORD_0": 6
          },
          "indices": 7,
          "material": 0,
          "mode": 4
        }
      ]
    },
    {
      "name": "Object_2",
      "primitives": [
        {
          "attributes": {
            "NORMAL": 9,
            "POSITION": 8
          },
          "indices": 10,
          "material": 1,
          "mode": 4
        }
      ]
    },
    {
      "name": "Object_3",
      "primitives": [
        {
          "attributes": {
            "NORMAL": 12,
            "POSITION": 11
          },
          "indices": 13,
          "material": 2,
          "mode": 4
        }
      ]
    }
  ],
  "nodes": [
    {
      "children": [
        1
      ],
      "matrix": [
        0.00021316224592737854,
        0.0,
        0.0,
        0.0,
        0.0,
        4.733152668187713e-20,
        -0.00021316224592737854,
        0.0,
        0.0,
        0.00021316224592737854,
        4.733152668187713e-20,
        0.0,
        0.0,
        0.0,
        0.0,
        1.0
      ],
      "name": "Sketchfab_model"
    },
    {
      "children": [
        2
      ],
      "name": "root"
    },
    {
      "children": [
        3,
        6,
        8
      ],
      "matrix": [
        1.0,
        0.0,
        0.0,
        0.0,
        0.0,
        2.220446049250313e-16,
        1.0,
        0.0,
        0.0,
        -1.0,
        2.220446049250313e-16,
        0.0,
        0.0,
        0.0,
        0.0,
        1.0
      ],
      "name": "GLTF_SceneRootNode"
    },
    {
      "children": [
        4,
        5
      ],
      "name": "TerrainNode_0"
    },
    {
      "mesh": 0,
      "name": "Object_4"
    },
    {
      "mesh": 1,
      "name": "Object_5"
    },
    {
      "children": [
        7
      ],
      "name": "Buildings_1"
    },
    {
      "mesh": 2,
      "name": "Object_7"
    },
    {
      "children": [
        9
      ],
      "name": "Streets_2"
    },
    {
      "mesh": 3,
      "name": "Object_9"
    }
  ],
  "samplers": [
    {
      "magFilter": 9729,
      "minFilter": 9987,
      "wrapS": 10497,
      "wrapT": 10497
    }
  ],
  "scene": 0,
  "scenes": [
    {
      "name": "Sketchfab_Scene",
      "nodes": [
        0
      ]
    }
  ],
  "textures": [
    {
      "sampler": 0,
      "source": 0
    }
  ]
}
